<svg width="85" height="223" viewBox="0 0 85 223" fill="none" xmlns="http://www.w3.org/2000/svg">
<circle cx="0.13181" cy="3.245" r="3.245" fill="#478DF7"/>
<circle cx="27.0186" cy="3.245" r="3.245" fill="#478DF7"/>
<circle cx="0.13181" cy="27.3014" r="3.245" fill="#478DF7"/>
<circle cx="27.0186" cy="27.3014" r="3.245" fill="#478DF7"/>
<circle cx="0.13181" cy="51.3583" r="3.245" fill="#478DF7"/>
<circle cx="27.0186" cy="51.3583" r="3.245" fill="#478DF7"/>
<circle cx="0.13181" cy="75.4147" r="3.245" fill="#478DF7"/>
<circle cx="27.0186" cy="75.4147" r="3.245" fill="#478DF7"/>
<circle cx="0.13181" cy="99.4716" r="3.245" fill="#478DF7"/>
<circle cx="27.0186" cy="99.4716" r="3.245" fill="#478DF7"/>
<circle cx="0.13181" cy="123.528" r="3.245" fill="#478DF7"/>
<circle cx="27.0186" cy="123.528" r="3.245" fill="#478DF7"/>
<circle cx="53.9054" cy="3.245" r="3.245" fill="#478DF7"/>
<circle cx="53.9054" cy="27.3014" r="3.245" fill="#478DF7"/>
<circle cx="53.9054" cy="51.3583" r="3.245" fill="#478DF7"/>
<circle cx="53.9054" cy="75.4147" r="3.245" fill="#478DF7"/>
<circle cx="53.9054" cy="99.4716" r="3.245" fill="#478DF7"/>
<circle cx="53.9054" cy="123.528" r="3.245" fill="#478DF7"/>
<circle cx="80.7922" cy="3.245" r="3.245" fill="#478DF7"/>
<circle cx="80.7922" cy="27.3014" r="3.245" fill="#478DF7"/>
<circle cx="80.7922" cy="51.3583" r="3.245" fill="#478DF7"/>
<circle cx="80.7922" cy="75.4147" r="3.245" fill="#478DF7"/>
<circle cx="80.7922" cy="99.4716" r="3.245" fill="#478DF7"/>
<circle cx="80.7922" cy="123.528" r="3.245" fill="#478DF7"/>
<circle cx="0.13181" cy="147.585" r="3.245" fill="#478DF7"/>
<circle cx="27.0186" cy="147.585" r="3.245" fill="#478DF7"/>
<circle cx="0.13181" cy="171.641" r="3.245" fill="#478DF7"/>
<circle cx="27.0186" cy="171.641" r="3.245" fill="#478DF7"/>
<circle cx="53.9054" cy="147.585" r="3.245" fill="#478DF7"/>
<circle cx="53.9054" cy="171.641" r="3.245" fill="#478DF7"/>
<circle cx="80.7922" cy="147.585" r="3.245" fill="#478DF7"/>
<circle cx="80.7922" cy="171.641" r="3.245" fill="#478DF7"/>
<circle cx="0.13181" cy="195.698" r="3.245" fill="#478DF7"/>
<circle cx="27.0186" cy="195.698" r="3.245" fill="#478DF7"/>
<circle cx="0.13181" cy="219.754" r="3.245" fill="#478DF7"/>
<circle cx="27.0186" cy="219.754" r="3.245" fill="#478DF7"/>
<circle cx="53.9054" cy="195.698" r="3.245" fill="#478DF7"/>
<circle cx="53.9054" cy="219.754" r="3.245" fill="#478DF7"/>
<circle cx="80.7922" cy="195.698" r="3.245" fill="#478DF7"/>
<circle cx="80.7922" cy="219.754" r="3.245" fill="#478DF7"/>
</svg>
