<svg width="48px" height="48px" viewBox="0 0 70 70" version="1.1" xmlns="http://www.w3.org/2000/svg" xmlns:xlink="http://www.w3.org/1999/xlink">
    <g id="Page-1" stroke="none" stroke-width="1" fill="none" fill-rule="evenodd">
        <g id="landing-page" transform="translate(-1180.000000, -2956.000000)">
            <g id="Group-9" transform="translate(0.000000, 2838.000000)">
                <g id="gdpr-compliant" transform="translate(1180.000000, 118.000000)">
                    <path d="M26,31.9048507 L29.8283582,31.9048507 L29.8283582,27.7220149 C29.8283582,22.7593284 41.1716418,22.7593284 41.1716418,27.7220149 L41.1716418,31.9048507 L45,31.9048507 L45,46.4384328 L26,46.4384328 L26,31.9048507 Z M31.8843284,31.9048507 L39.0447761,31.9048507 C39.0447761,30.2033582 39.1156716,27.5093284 38.9738806,27.2966418 C37.9813433,25.5242537 31.8843284,25.8078358 31.8843284,27.7220149 L31.8843284,31.9048507 Z M28.1268657,33.9608209 L42.8731343,33.9608209 L42.8731343,44.3115672 L28.1268657,44.3115672 L28.1268657,33.9608209 Z" id="Shape" fill="#FFFFFF"></path>
                    <g id="Group" fill="#FED52A" fill-rule="nonzero">
                        <polygon id="Shape" points="35.0000981 0 36.1339771 3.66990171 39.8039216 3.66990171 36.8350704 5.93794143 37.9689493 9.60784314 35.0000981 7.33835841 32.0318358 9.60784314 33.165911 5.93794143 30.1960784 3.66990171 33.8660229 3.66990171"></polygon>
                        <polygon id="Shape" points="35.0000981 60.3921569 36.1339771 64.0631579 39.8039216 64.0631579 36.8350704 66.3308566 37.9689493 70 35.0000981 67.7325077 32.0318358 70 33.165911 66.3308566 30.1960784 64.0631579 33.8660229 64.0631579"></polygon>
                        <polygon id="Shape" points="50.0980392 5.49019608 51.2314915 9.16005617 54.9019608 9.16005617 51.9324887 11.4290046 53.0667261 15.0980392 50.0980392 12.8290907 47.1287634 15.0980392 48.2628045 11.4290046 45.2941176 9.16005617 48.964587 9.16005617"></polygon>
                        <polygon id="Shape" points="62.3044123 45 63.4377951 48.6711101 67.1078431 48.6711101 64.1387493 50.9390036 65.2735061 54.6078431 62.3044123 52.3407753 59.3351222 54.6078431 60.4692901 50.9390036 57.5 48.6711101 61.1702444 48.6711101"></polygon>
                        <polygon id="Shape" points="65.1963729 30.1960784 66.3297556 33.8656648 70 33.8656648 67.0309062 36.1335096 68.1648778 39.8039216 65.1963729 37.5369024 62.227279 39.8039216 63.3620358 36.1335096 60.3921569 33.8656648 64.0616161 33.8656648"></polygon>
                        <polygon id="Shape" points="4.80460864 30.1960784 5.93808404 33.8656648 9.60784314 33.8656648 6.63850666 36.1335096 7.7733562 39.8039216 4.80460864 37.5369024 1.83507586 39.8039216 2.96933648 36.1335096 0 33.8656648 3.67034802 33.8656648"></polygon>
                        <polygon id="Shape" points="7.30460864 45 8.43808404 48.6711101 12.1078431 48.6711101 9.13929189 50.9390036 10.272571 54.6078431 7.30460864 52.3407753 4.33527216 54.6078431 5.46933648 50.9390036 2.5 48.6711101 6.17054433 48.6711101"></polygon>
                        <polygon id="Shape" points="62.3044123 15 63.4377951 18.6711101 67.1078431 18.6711101 64.1387493 20.9390036 65.2735061 24.6078431 62.3044123 22.3407753 59.3351222 24.6078431 60.4692901 20.9390036 57.5 18.6711101 61.1702444 18.6711101"></polygon>
                        <polygon id="Shape" points="8.55460864 15 9.68808404 18.6711101 13.3578431 18.6711101 10.3892919 20.9390036 11.522571 24.6078431 8.55460864 22.3407753 5.58527216 24.6078431 6.71933648 20.9390036 3.75 18.6711101 7.42054433 18.6711101"></polygon>
                        <polygon id="Shape" points="52.8434317 57.6470588 53.9768145 61.3164087 57.6470588 61.3164087 54.6771798 63.5855521 55.8119366 67.254902 52.8434317 64.9872033 49.8735527 67.254902 51.0085058 63.5855521 48.0392157 61.3164087 51.7094601 61.3164087"></polygon>
                        <polygon id="Shape" points="19.9020589 5.49019608 21.035338 9.16005617 24.7058824 9.16005617 21.7365459 11.4290046 22.8713954 15.0980392 19.9020589 12.8290907 16.9333114 15.0980392 18.0673757 11.4290046 15.0980392 9.16005617 18.7677983 9.16005617"></polygon>
                        <polygon id="Shape" points="17.1565683 57.6470588 18.2905399 61.3182965 21.9607843 61.3182965 18.9916905 63.5853156 20.1256621 67.254902 17.1565683 64.988502 14.1880634 67.254902 15.322035 63.5853156 12.3529412 61.3182965 16.0224004 61.3182965"></polygon>
                    </g>
                </g>
            </g>
        </g>
    </g>
</svg>
