<svg width="47" height="39" viewBox="0 0 47 39" fill="none" xmlns="http://www.w3.org/2000/svg">
<path fill-rule="evenodd" clip-rule="evenodd" d="M5 0.417969C2.23858 0.417969 0 2.65655 0 5.41798V34.0001C0 36.7615 2.23858 39.0001 5 39.0001H47L43.3841 37.8701C42.0831 37.4635 40.9332 36.6777 40.0817 35.6133C39.1109 34.3999 38.5821 32.8923 38.5821 31.3384V5.41797C38.5821 2.65655 36.3435 0.417969 33.5821 0.417969H5ZM47 15.8507C47 12.7514 44.4874 10.2388 41.3881 10.2388V31.9851C41.3881 33.5348 42.6443 34.791 44.194 34.791C45.7437 34.791 47 33.5348 47 31.9851V15.8507ZM4.91045 7.02991C4.91045 6.47762 5.35816 6.02991 5.91045 6.02991H31.9701C32.5224 6.02991 32.9701 6.47762 32.9701 7.02991V15.5523C32.9701 16.1046 32.5224 16.5523 31.9701 16.5523H5.91045C5.35816 16.5523 4.91045 16.1046 4.91045 15.5523V7.02991ZM5.96269 18.6568C5.38155 18.6568 4.91045 19.1279 4.91045 19.709C4.91045 20.2901 5.38155 20.7613 5.96269 20.7613H17.8881C18.4692 20.7613 18.9403 20.2901 18.9403 19.709C18.9403 19.1279 18.4692 18.6568 17.8881 18.6568H5.96269ZM4.91045 24.6195C4.91045 24.0383 5.38155 23.5672 5.96269 23.5672H31.9179C32.499 23.5672 32.9701 24.0383 32.9701 24.6195C32.9701 25.2006 32.499 25.6717 31.9179 25.6717H5.96269C5.38155 25.6717 4.91045 25.2006 4.91045 24.6195ZM5.96269 28.4777C5.38155 28.4777 4.91045 28.9488 4.91045 29.5299C4.91045 30.111 5.38155 30.5821 5.96269 30.5821H31.9179C32.499 30.5821 32.9701 30.111 32.9701 29.5299C32.9701 28.9488 32.499 28.4777 31.9179 28.4777H5.96269Z" fill="black"/>
</svg>
