<svg width="20" height="16" viewBox="0 0 20 16" fill="none" xmlns="http://www.w3.org/2000/svg">
<path d="M0.0799561 10.4161C0.0799561 13.7961 2.26396 15.7201 4.70796 15.7201C6.94396 15.7201 8.81596 13.8481 8.81596 11.6121C8.81596 9.37614 7.25596 7.86814 5.27996 7.86814C4.86396 7.86814 4.44796 7.92014 4.23996 8.02414C4.70796 6.15214 6.63196 3.96814 8.29596 3.08414L5.43596 0.744141C2.21196 3.03214 0.0799561 6.51614 0.0799561 10.4161ZM10.688 10.4161C10.688 13.7961 12.872 15.7201 15.316 15.7201C17.552 15.7201 19.372 13.8481 19.372 11.6121C19.372 9.37614 17.864 7.86814 15.888 7.86814C15.472 7.86814 15.004 7.92014 14.848 8.02414C15.264 6.15214 17.24 3.96814 18.904 3.08414L16.044 0.744141C12.82 3.03214 10.688 6.51614 10.688 10.4161Z" fill="black"/>
</svg>
